Coordinates
version=1
nRows=18
nColumns=33
inDegrees=yes

Units are S.I. units (second, meters, Newtons, ...)
Angles are in degrees.

endheader
time	ground_thorax_rot_x	ground_thorax_rot_y	ground_thorax_rot_z	ground_thorax_tx	ground_thorax_ty	ground_thorax_tz	clav_prot_r	clav_elev_r	scapula_abduction_r	scapula_elevation_r	scapula_upward_rot_r	scapula_winging_r	shoulder_elv_r	plane_of_elev_r	axial_rot_r	elbow_flexion_r	pro_sup_r	wrist_flex_r	wrist_dev_r	clav_prot_l	clav_elev_l	scapula_abduction_l	scapula_elevation_l	scapula_upward_rot_l	scapula_winging_l	shoulder_elv_l	plane_of_elev_l	axial_rot_l	elbow_flexion_l	pro_sup_l	wrist_flex_l	wrist_dev_l	
5.8900	-5.894493	3.840340	8.907338	-0.088084	1.028535	0.003883	16.196105	-9.496392	44.998657	-11.611868	28.412383	-14.583184	-3.889394	-52.446605	121.908035	-32.544764	-130.805775	4.513944	0.139234	26.628137	-11.364953	-40.131518	-5.066685	-23.812659	14.094368	60.760967	3.512078	14.533877	12.620189	24.912646	14.096093	-8.326249	
5.9000	-5.870013	3.881495	8.892716	-0.087792	1.028656	0.003986	16.209909	-9.524648	44.997591	-11.627901	28.382185	-14.571775	-3.881093	-52.465693	121.920034	-32.549321	-130.908306	4.517751	0.133698	26.607759	-11.329125	-40.103171	-5.099592	-23.816427	14.086796	60.756597	3.449220	14.446107	12.673378	24.786864	14.144840	-8.360661	
5.9100	-5.854306	3.923358	8.877214	-0.087541	1.028732	0.004077	16.231833	-9.570035	44.995693	-11.653796	28.333891	-14.553571	-3.860212	-52.505847	121.940779	-32.558691	-131.088804	4.524559	0.123281	26.575085	-11.271938	-40.057682	-5.148446	-23.814605	14.073574	60.750346	3.357362	14.279839	12.785016	24.563026	14.232428	-8.426930	
5.9200	-5.843269	3.962826	8.868517	-0.087385	1.028749	0.004159	16.274715	-9.639667	44.992263	-11.688269	28.238476	-14.528937	-3.826765	-52.578240	121.952152	-32.591006	-131.419936	4.537776	0.105155	26.513554	-11.193804	-39.968747	-5.207709	-23.793795	14.039601	60.733259	3.211043	14.025509	12.957435	24.164429	14.385740	-8.533210	
5.9300	-5.830563	4.000364	8.862700	-0.087320	1.028702	0.004233	16.334766	-9.729621	44.986203	-11.729653	28.102420	-14.498556	-3.778634	-52.689520	121.955429	-32.649809	-131.928659	4.557940	0.083118	26.418493	-11.096802	-39.828079	-5.277954	-23.758305	13.978915	60.705624	3.017978	13.689913	13.202391	23.589955	14.598258	-8.674921	
5.9400	-5.807157	4.030174	8.869220	-0.087335	1.028600	0.004305	16.415755	-9.834965	44.975112	-11.770749	27.913493	-14.466151	-3.732518	-52.847238	121.940528	-32.755369	-132.736545	4.588958	0.069965	26.267261	-10.998441	-39.596486	-5.343229	-23.702168	13.862909	60.667999	2.765848	13.294157	13.499467	22.784656	14.875325	-8.834631	
5.9500	-5.770181	4.053179	8.871868	-0.087421	1.028434	0.004381	16.504719	-9.941904	44.955903	-11.805739	27.694943	-14.434083	-3.690857	-53.046985	121.922836	-32.913176	-133.810640	4.631679	0.069624	26.067399	-10.898994	-39.284814	-5.412790	-23.647027	13.697645	60.638278	2.485836	12.878355	13.868844	21.844541	15.169937	-8.994849	
5.9600	-5.714154	4.070733	8.880960	-0.087567	1.028229	0.004467	16.600720	-10.042414	44.919655	-11.825156	27.435423	-14.404344	-3.666506	-53.279697	121.887351	-33.137219	-135.130666	4.687252	0.086280	25.819563	-10.815243	-38.891520	-5.474700	-23.597403	13.477728	60.616088	2.189736	12.503346	14.281699	20.836054	15.458738	-9.137493	
5.9700	-5.638900	4.078605	8.890682	-0.087763	1.027986	0.004567	16.697987	-10.133577	44.861783	-11.827782	27.140554	-14.375021	-3.662820	-53.538380	121.843143	-33.447792	-136.676193	4.758482	0.133990	25.532450	-10.748024	-38.428483	-5.542345	-23.585429	13.209452	60.621713	1.901865	12.203811	14.765232	19.901136	15.694875	-9.252544	
5.9800	-5.550273	4.076943	8.914091	-0.087998	1.027726	0.004680	16.788213	-10.220833	44.759546	-11.815029	26.796471	-14.333640	-3.692415	-53.813761	121.795785	-33.855581	-138.440679	4.848655	0.211896	25.207035	-10.701076	-37.896779	-5.612158	-23.610345	12.892733	60.651287	1.613408	11.986786	15.311468	19.061196	15.887621	-9.347070	
5.9900	-5.457269	4.068850	8.943906	-0.088267	1.027448	0.004810	16.859121	-10.308766	44.593558	-11.790728	26.402658	-14.267573	-3.750579	-54.089388	121.756266	-34.374331	-140.326197	4.962045	0.309227	24.861394	-10.660555	-37.327081	-5.700269	-23.684607	12.550006	60.708595	1.331795	11.848651	15.957940	18.392421	16.028078	-9.440024	
6.0000	-5.368894	4.063532	8.985782	-0.088570	1.027209	0.004942	16.898569	-10.429124	44.331755	-11.777769	25.942419	-14.144582	-3.826782	-54.365864	121.730592	-34.998157	-142.392515	5.096262	0.427385	24.493452	-10.633611	-36.716493	-5.790711	-23.786472	12.179382	60.790793	1.042992	11.752966	16.673448	17.874300	16.163003	-9.545046	
6.0100	-5.284385	4.058239	9.037079	-0.088901	1.027005	0.005081	16.903958	-10.573762	43.976492	-11.770924	25.423887	-13.969108	-3.925155	-54.639050	121.718675	-35.734613	-144.576074	5.255090	0.556351	24.111915	-10.611537	-36.080359	-5.891207	-23.917711	11.792268	60.890035	0.746378	11.702707	17.471281	17.497711	16.294324	-9.668749	
6.0200	-5.212312	4.058163	9.096522	-0.089264	1.026863	0.005215	16.865018	-10.753511	43.516499	-11.780850	24.854163	-13.727536	-4.043864	-54.913978	121.738880	-36.565918	-146.886072	5.436255	0.678768	23.721666	-10.591468	-35.428038	-5.997961	-24.065169	11.395729	61.004072	0.433925	11.672242	18.336549	17.227179	16.451166	-9.816625	
6.0300	-5.145104	4.064405	9.158023	-0.089666	1.026746	0.005365	16.791365	-10.927146	42.983419	-11.777215	24.253881	-13.456528	-4.194692	-55.175329	121.757053	-37.491578	-149.057337	5.643932	0.770559	23.349649	-10.557334	-34.805989	-6.125220	-24.233191	11.021374	61.111413	0.119761	11.702394	19.285083	17.063289	16.608273	-9.991850	
6.0400	-5.087451	4.078270	9.226993	-0.090118	1.026664	0.005531	16.690591	-11.095754	42.391905	-11.761125	23.626820	-13.161794	-4.387736	-55.431308	121.759728	-38.503146	-151.051932	5.877168	0.844964	23.000400	-10.509928	-34.221680	-6.273006	-24.423551	10.673129	61.216543	-0.202159	11.776107	20.306312	17.005306	16.770676	-10.192023	
6.0500	-5.034081	4.092597	9.309120	-0.090605	1.026593	0.005732	16.582593	-11.240915	41.776776	-11.717182	22.976761	-12.871124	-4.652257	-55.683949	121.691995	-39.618508	-152.762848	6.143557	0.919737	22.674183	-10.444806	-33.675985	-6.448719	-24.643726	10.351494	61.312815	-0.545880	11.894453	21.423057	17.009160	16.939641	-10.418552	
6.0600	-4.987363	4.103586	9.399790	-0.091112	1.026543	0.005963	16.464554	-11.364840	41.140230	-11.649637	22.313643	-12.582478	-4.990827	-55.941469	121.567852	-40.828988	-154.235061	6.441328	0.998356	22.364319	-10.360489	-33.158089	-6.653056	-24.891299	10.049950	61.405194	-0.916591	12.047403	22.629868	17.057943	17.117535	-10.665738	
